# xmcd
#
# Track frame offsets: 
#        150
#        18070
#        39670
#        57312
#        78607
#        101137
#        119599
#        137936
#        153121
#        171626
#        194171
#        212883
#        236593
#        255223
#        275878
#
# Disc length: 3914 seconds
#
# Revision: 0
# Processed by: cddbd v1.5.2PL0 Copyright (c) Steve Scherf et al.
# Submitted via: ExactAudioCopyFreeDBPlugin 1.0
#
DISCID=e20f480f
DTITLE=群星 - 试音王金耳朵CD2
DYEAR=2004
DGENRE=Acid
TTITLE0=雨天 - 特别的爱给特别的你
TTITLE1=赵鹏 - 把悲伤留给自已
TTITLE2=刘紫玲 - 朋友的哭
TTITLE3=雨天  - 有多少爱可以重来
TTITLE4=包伍 - 让我欢喜让我忧
TTITLE5=雨天 - 爱要怎么说出口
TTITLE6=赵鹏 - 星星点灯
TTITLE7=丁咚 - 思念谁
TTITLE8=雨天 - 一场游戏一场梦
TTITLE9=童丽 - 外面的世界
TTITLE10=赵鹏 - 你的样子
TTITLE11=江智民 - 驿动的心
TTITLE12=雨天 - 今夜你会不会来
TTITLE13=丁咚 - 明天你是否依然爱我
TTITLE14=雨天 - 只要你过得比我好
EXTD=
EXTT0=
EXTT1=
EXTT2=
EXTT3=
EXTT4=
EXTT5=
EXTT6=
EXTT7=
EXTT8=
EXTT9=
EXTT10=
EXTT11=
EXTT12=
EXTT13=
EXTT14=
PLAYORDER=
